HIERARCHY
ROOT Hips
{
	OFFSET 0.00000 0.00000 0.00000
	CHANNELS 6 Xposition Yposition Zposition Yrotation Zrotation Xrotation 
	JOINT Lumbar
	{
		OFFSET 0 0 0
		CHANNELS 3 Zrotation Xrotation Yrotation
		JOINT Neck
		{
			OFFSET 0.00 0.2701 0.00
			CHANNELS 3 Zrotation Xrotation Yrotation
			End Site
			{
				OFFSET 0.00 0.1379 0.00
			}
		}
		JOINT RightShoulder
		{
			OFFSET 0.0119 0.2289 0.1181
			CHANNELS 3 Zrotation Xrotation Yrotation
			JOINT RightElbow
			{
				OFFSET 0.00 -0.1475 0.00
				CHANNELS 2 Zrotation Yrotation
				JOINT RightWrist
				{
					OFFSET 0.00 -0.1605 0.00
					CHANNELS 2 Zrotation Xrotation
					End Site
					{
						OFFSET 0.0040 -0.1068 0.0006
					}
				}
			}
		}
		JOINT LeftShoulder
		{
			OFFSET 0.0119 0.2289 -0.1181
			CHANNELS 3 Zrotation Xrotation Yrotation
			JOINT LeftElbow
			{
				OFFSET 0.00 -0.1475 0.00
				CHANNELS 2 Zrotation Yrotation
				JOINT LeftWrist
				{
					OFFSET 0.00 -0.1605 0.00
					CHANNELS 2 Zrotation Xrotation
					End Site
					{
						OFFSET 0.0040 -0.1068 -0.0006
					}
				}
			}
		}
	}
	JOINT RightHip
	{
		OFFSET 0.0316 -0.0424 0.0458
		CHANNELS 3 Zrotation Xrotation Yrotation
		JOINT RightKnee
		{
			OFFSET 0.00 -0.2438 0.00
			CHANNELS 1 Zrotation
			JOINT RightAnkle
			{
				OFFSET 0.00 -0.2449 0.00
				CHANNELS 3 Zrotation Xrotation Yrotation
				End Site
				{
					OFFSET 0.1237 -0.0542 0.0051
				}
			}
		}
	}
	JOINT LeftHip
	{
		OFFSET 0.0316 -0.0424 -0.0458
		CHANNELS 3 Zrotation Xrotation Yrotation
		JOINT LeftKnee
		{
			OFFSET 0.00 -0.2438 0.00
			CHANNELS 1 Zrotation
			JOINT LeftAnkle
			{
				OFFSET 0.00 -0.2449 0.00
				CHANNELS 3 Zrotation Xrotation Yrotation
				End Site
				{
					OFFSET 0.1237 -0.0542 -0.0051
				}
			}
		}
	}
}
MOTION
Frames: 23
Frame Time: 0.02
-0 0.57926 0 179.75516 0 -4.41248 5.25597 5.92323 -2.23626 -30.44278 4.46755 3.70939 25.74335 -20.2183 11.99835 12.02481 82.41602 -2.03313 -5.34984 24.97409 7.36202 -15.39516 9.98829 -81.52373 -3.03088 2.91889 -5.04127 6.0753 -2.16381 -7.55586 -10.54866 -1.83841 -8.22266 -6.69262 5.00633 17.41844 -6.1576 -3.65775 2.70637 8.12752
5e-05 0.57935 -0.00048 179.69497 0 -4.43656 5.24174 5.82238 -2.44652 -30.06809 4.36739 3.61306 25.45367 -19.9854 12.05301 11.95499 82.37016 -2.00652 -5.33516 24.76078 7.63425 -15.50257 10.08077 -81.58789 -3.04524 2.96991 -4.94024 6.13291 -2.03218 -7.72469 -10.55725 -1.83211 -8.28328 -6.50423 5.10561 17.33167 -6.54784 -3.57881 2.7525 8.30773
0.0001 0.57944 -0.00096 179.63508 0 -4.46013 5.22737 5.72108 -2.65614 -29.69479 4.26831 3.51758 25.16484 -19.75447 12.10962 11.8855 82.32465 -1.97993 -5.32041 24.54876 7.90465 -15.60668 10.17279 -81.65178 -3.05976 3.02103 -4.83985 6.18981 -1.90145 -7.89218 -10.5657 -1.82591 -8.34349 -6.31701 5.20387 17.24541 -6.93536 -3.50073 2.79825 8.48683
0.00015 0.57953 -0.00144 179.57569 0 -4.4826 5.21221 5.61771 -2.86496 -29.32367 4.17241 3.42469 24.87675 -19.52886 12.17384 11.81693 82.27987 -1.95308 -5.30531 24.33976 8.17073 -15.69978 10.26421 -81.71535 -3.07494 3.07312 -4.74021 6.24544 -1.77337 -8.05755 -10.57353 -1.82004 -8.40308 -6.13119 5.3002 17.15865 -7.31889 -3.4239 2.8434 8.66534
0.00018 0.57962 -0.00194 179.51351 0 -4.51176 5.20114 5.52612 -3.07769 -28.94133 4.05949 3.31824 24.58494 -19.27472 12.19688 11.74383 82.23097 -1.92753 -5.29216 24.11465 8.46013 -15.85252 10.35917 -81.78078 -3.08648 3.1201 -4.63558 6.30905 -1.63163 -8.23605 -10.58448 -1.81243 -8.46651 -5.93626 5.4082 17.07254 -7.72728 -3.33877 2.89228 8.84949
0.00027 0.5797 -0.00238 179.4574 0 -4.52615 5.18148 5.40915 -3.28216 -28.58289 3.98279 3.24044 24.30114 -19.0814 12.30758 11.68018 82.19101 -1.8993 -5.27485 23.9239 8.69959 -15.87811 10.44633 -81.84211 -3.10582 3.17782 -4.54229 6.35486 -1.51867 -8.38531 -10.58894 -1.80847 -8.52137 -5.76193 5.49044 16.98648 -8.08014 -3.27243 2.93287 9.01984
0.00053 0.57973 -0.00269 179.41657 0 -4.50385 5.13608 5.2214 -3.46664 -28.28458 4.0069 3.24371 24.03354 -19.05521 12.66704 11.64361 82.17389 -1.86223 -5.24555 23.82568 8.80532 -15.54819 10.51562 -81.89427 -3.14707 3.26821 -4.47301 6.3583 -1.48766 -8.46612 -10.57383 -1.81524 -8.55626 -5.632 5.50949 16.88647 -8.30522 -3.24808 2.95392 9.16999
0.00086 0.57973 -0.00293 179.3823 0 -4.466 5.08228 5.00821 -3.64245 -28.01114 4.06747 3.27551 23.77483 -19.09061 13.1138 11.61638 82.1661 -1.82266 -5.21212 23.76248 8.85987 -15.09089 10.57649 -81.94192 -3.19611 3.36899 -4.41637 6.34259 -1.48554 -8.51531 -10.5525 -1.82556 -8.58179 -5.52492 5.50115 16.78861 -8.4699 -3.24436 2.96607 9.30329
0.00116 0.57975 -0.00319 179.3457 0 -4.43241 5.03362 4.80654 -3.82063 -27.72977 4.1109 3.29303 23.51552 -19.09823 13.51723 11.58414 82.15523 -1.78515 -5.18092 23.68462 8.93537 -14.69363 10.63888 -81.99035 -3.24149 3.46317 -4.35869 6.33117 -1.4681 -8.57097 -10.535 -1.83384 -8.60935 -5.4155 5.50014 16.69932 -8.6457 -3.23777 2.98009 9.43255
0.00147 0.57976 -0.00351 179.30554 0 -4.41016 4.97956 4.60401 -4.00545 -27.4342 4.15677 3.31624 23.24164 -19.10468 13.93759 11.55501 82.13949 -1.74382 -5.14827 23.60134 9.02102 -14.28515 10.71084 -82.04429 -3.28766 3.56526 -4.28144 6.33813 -1.45855 -8.65969 -10.51307 -1.84394 -8.64657 -5.2726 5.52052 16.57136 -8.88991 -3.20427 3.00307 9.6103
0.00177 0.57978 -0.00368 179.27537 0 -4.36124 4.93454 4.39854 -4.17435 -27.17414 4.20617 3.33417 23.00033 -19.12859 14.34148 11.5218 82.13607 -1.70979 -5.11762 23.53782 9.07281 -13.8725 10.76108 -82.08548 -3.33366 3.65332 -4.24762 6.30255 -1.44114 -8.67241 -10.49914 -1.85109 -8.66108 -5.20428 5.4901 16.52245 -8.97788 -3.23102 3.00551 9.68415
0.00199 0.57985 -0.00353 179.26243 0 -4.23702 4.91837 4.17982 -4.30165 -27.00627 4.25699 3.33262 22.84655 -19.18237 14.69589 11.47346 82.16474 -1.69706 -5.09364 23.51968 9.04818 -13.45638 10.75149 -82.09419 -3.38053 3.70048 -4.33298 6.15167 -1.37994 -8.48051 -10.50641 -1.84931 -8.61856 -5.34111 5.32391 16.70875 -8.64457 -3.42499 2.95136 9.46576
0.00221 0.57993 -0.00322 179.26087 0 -4.08761 4.91132 3.96122 -4.4131 -26.8737 4.31008 3.32453 22.72583 -19.25237 15.02781 11.42092 82.20537 -1.69173 -5.07176 23.52074 8.99025 -13.04506 10.72068 -82.08992 -3.42642 3.73312 -4.46088 5.95912 -1.31239 -8.21413 -10.52235 -1.84444 -8.5531 -5.5512 5.10796 16.97149 -8.15716 -3.67766 2.87724 9.14513
0.00245 0.58001 -0.00296 179.2599 0 -3.95323 4.89882 3.7499 -4.53174 -26.72421 4.36162 3.31787 22.5894 -19.31684 15.35825 11.37139 82.24037 -1.68261 -5.04878 23.51292 8.94473 -12.6463 10.70083 -82.0905 -3.47057 3.77213 -4.56808 5.78725 -1.25793 -7.98296 -10.53594 -1.84093 -8.4956 -5.72473 4.9162 17.18752 -7.74316 -3.89971 2.8136 8.87756
0.00263 0.58009 -0.00282 179.23511 0 -3.80283 4.89128 3.50638 -4.65044 -26.57734 4.41624 3.31807 22.45391 -19.37494 15.7398 11.31776 82.27678 -1.67498 -5.02625 23.50531 8.90946 -12.1796 10.67513 -82.09528 -3.52398 3.81239 -4.6826 5.60726 -1.16243 -7.74315 -10.54275 -1.83771 -8.44722 -5.91326 4.71675 17.45326 -7.31213 -4.13956 2.74368 8.58166
0.00292 0.58016 -0.00237 179.26222 0 -3.68044 4.87602 3.33069 -4.76498 -26.43551 4.465 3.30285 22.32703 -19.4503 16.01007 11.2713 82.31266 -1.66633 -5.00337 23.50345 8.84492 -11.85879 10.6567 -82.08838 -3.55806 3.84654 -4.79044 5.43467 -1.14923 -7.50629 -10.56561 -1.83312 -8.37571 -6.08712 4.52198 17.63473 -6.8816 -4.35546 2.68222 8.32057
0.00345 0.58019 -0.00117 179.43228 0 -3.63793 4.83396 3.33898 -4.87519 -26.2773 4.49245 3.23951 22.191 -19.56038 15.96363 11.24803 82.3468 -1.65053 -4.97891 23.49398 8.71431 -11.92711 10.66338 -82.05168 -3.53631 3.86663 -4.88027 5.29163 -1.37501 -7.27841 -10.63223 -1.82555 -8.23639 -6.20738 4.35133 17.55532 -6.48266 -4.49571 2.64886 8.18159
0.00409 0.58021 0.00035 179.65341 0 -3.62519 4.78424 3.41615 -4.98116 -26.12636 4.51448 3.16196 22.06676 -19.68824 15.80811 11.23176 82.37949 -1.63393 -4.95412 23.49229 8.55479 -12.14515 10.67822 -82.00386 -3.4956 3.88114 -4.95919 5.15783 -1.68107 -7.06055 -10.71417 -1.81674 -8.0769 -6.30954 4.18737 17.39049 -6.09086 -4.60892 2.62473 8.08093
0.00469 0.58024 0.00174 179.84989 0 -3.60128 4.7405 3.46425 -5.08697 -25.98684 4.54193 3.09555 21.95375 -19.81397 15.71212 11.21057 82.41102 -1.61934 -4.9295 23.50007 8.404 -12.30344 10.68942 -81.96157 -3.46532 3.89865 -5.03677 5.02057 -1.94451 -6.84827 -10.78845 -1.80843 -7.93235 -6.41647 4.02123 17.2706 -5.70152 -4.73107 2.59652 7.96234
0.00525 0.58026 0.00306 180.05402 0 -3.56663 4.68749 3.50345 -5.2011 -25.78853 4.55742 3.00953 21.77318 -19.91671 15.5742 11.19611 82.45052 -1.59802 -4.90463 23.45648 8.26914 -12.42651 10.69945 -81.91668 -3.42738 3.91373 -5.14504 4.87854 -2.2367 -6.58615 -10.86708 -1.80013 -7.76064 -6.53974 3.84998 17.12639 -5.28429 -4.86898 2.56724 7.84293
0.00593 0.58028 0.00461 180.2527 0 -3.56164 4.65062 3.57688 -5.29704 -25.71126 4.59599 2.96061 21.73404 -20.06943 15.49696 11.16995 82.4731 -1.59048 -4.88046 23.51794 8.09651 -12.65881 10.71429 -81.87493 -3.40085 3.93269 -5.18294 4.7494 -2.48435 -6.43678 -10.9388 -1.79175 -7.64347 -6.62474 3.69129 17.01298 -4.92683 -4.96743 2.54251 7.73493
0.00692 0.58031 0.00675 180.43591 0 -3.63212 4.67007 3.733 -5.34448 -25.98853 4.70459 3.02167 22.09648 -20.37254 15.62425 11.10549 82.44791 -1.62098 -4.85622 23.897 7.81084 -13.15175 10.73893 -81.84301 -3.41102 3.96413 -5.05591 4.65232 -2.62136 -6.55061 -10.9995 -1.78178 -7.66084 -6.59914 3.56878 16.99289 -4.75121 -4.95849 2.52922 7.65617
0.00803 0.58033 0.00912 180.60914 0 -3.73126 4.70376 3.91976 -5.37378 -26.38258 4.83611 3.12002 22.59782 -20.72248 15.81564 11.03044 82.40619 -1.66566 -4.83329 24.3754 7.49102 -13.74907 10.76829 -81.81497 -3.43319 3.99958 -4.8524 4.56852 -2.70446 -6.78763 -11.05067 -1.77205 -7.73779 -6.53684 3.45834 17.00863 -4.63303 -4.91143 2.52011 7.58709
